#!OML:ASF X:\für Bonn\!DataBase\2005_08_11_Bastian_Final\c3d\Bastian.ASF
:FULLY-SPECIFIED
:DEGREES
77
root 0.892091 7.11804 1.19241 167.663 -3.78115 -174.933
lowerback 35.9877 -0.324477 2.53498
upperback 4.58367 -1.00169 1.11112
thorax -12.9296 -1.25927 0.444932
lowerneck -12.7691 -5.76978 -4.60415
upperneck -12.6902 -8.53655 11.9401
head -1.15996 -5.04843 4.5159
rclavicle 1.70955e-014 -1.51076e-014
rhumerus 71.3069 -3.61408 9.18676
rradius 41.78
rwrist -68.7129
rhand -45.1375 -4.86292
rfingers 7.12502
rthumb -17.916 -34.0577
lclavicle 1.70955e-014 -1.51076e-014
lhumerus 61.0984 -1.74818 -27.7285
lradius 35.2598
lwrist 31.8431
lhand -48.7375 17.5835
lfingers 7.12502
lthumb -21.3769 46.4243
rfemur -66.5631 -38.6288 25.2024
rtibia 152.575
rfoot -55.6379 -9.42161
rtoes -6.72852
lfemur -58.5589 53.3235 -2.59169
ltibia 156.389
lfoot -55.4945 -25.1106
ltoes 2.32418
78
root 0.88642 7.18107 1.21395 167.717 -3.75857 -174.888
lowerback 35.9671 -0.317038 2.56612
upperback 4.64566 -0.996456 1.12105
thorax -12.8498 -1.2641 0.436134
lowerneck -12.8901 -5.72885 -4.49831
upperneck -12.6923 -8.50658 11.909
head -1.14947 -5.04053 4.48193
rclavicle 7.05686e-015 5.1684e-015
rhumerus 71.2542 -3.27397 8.94057
rradius 41.8022
rwrist -68.8019
rhand -45.2477 -4.49289
rfingers 7.12502
rthumb -18.022 -33.6779
lclavicle 7.05686e-015 5.1684e-015
lhumerus 61.0463 -2.42687 -28.8802
lradius 35.5728
lwrist 32.9567
lhand -49.0301 18.0774
lfingers 7.12502
lthumb -21.6579 46.886
rfemur -66.5702 -36.6769 25.5306
rtibia 152.022
rfoot -55.3509 -9.84222
rtoes -7.09896
lfemur -58.8442 51.8212 -3.24425
ltibia 155.829
lfoot -55.5441 -25.0266
ltoes 2.05005
79
root 0.880607 7.25929 1.23522 167.794 -3.7245 -174.87
lowerback 35.8994 -0.297898 2.54517
upperback 4.70046 -0.991402 1.14031
thorax -12.7604 -1.26465 0.463833
lowerneck -13.0185 -5.69195 -4.39268
upperneck -12.6633 -8.48023 11.8602
head -1.12776 -5.03127 4.43985
rclavicle -3.97569e-015 -9.54166e-015
rhumerus 71.0902 -2.96817 9.46641
rradius 42.0455
rwrist -69.5886
rhand -45.4655 -4.18083
rfingers 7.12502
rthumb -18.2316 -33.3464
lclavicle -3.97569e-015 -9.54166e-015
lhumerus 61.0303 -3.1023 -29.8882
lradius 35.7767
lwrist 33.4991
lhand -49.0411 18.7177
lfingers 7.12502
lthumb -21.6685 47.5251
rfemur -66.5933 -34.6423 25.8095
rtibia 151.363
rfoot -54.9255 -10.3007
rtoes -7.73806
lfemur -59.1375 49.9681 -3.98338
ltibia 155.128
lfoot -55.4974 -24.9176
ltoes 1.66591
80
root 0.874123 7.36923 1.25634 167.899 -3.70583 -174.829
lowerback 35.8341 -0.301678 2.55729
upperback 4.73503 -0.997803 1.15419
thorax -12.6954 -1.2697 0.473116
lowerneck -13.1302 -5.64797 -4.33132
upperneck -12.637 -8.43743 11.8523
head -1.10705 -5.01283 4.42272
rclavicle -1.05356e-014 4.77083e-015
rhumerus 70.8283 -2.71285 10.4734
rradius 42.4254
rwrist -70.7663
rhand -45.7445 -3.9718
rfingers 7.12502
rthumb -18.4999 -33.1121
lclavicle -1.05356e-014 4.77083e-015
lhumerus 61.0634 -3.74182 -30.7628
lradius 35.8319
lwrist 33.6107
lhand -48.8444 19.1724
lfingers 7.12502
lthumb -21.4795 48.0015
rfemur -66.4297 -32.4633 26.0489
rtibia 150.45
rfoot -54.3854 -10.8084
rtoes -8.44016
lfemur -59.5038 47.2772 -4.97337
ltibia 154.162
lfoot -55.2745 -24.792
ltoes 1.31156
81
root 0.867717 7.52045 1.27764 168.002 -3.68627 -174.81
lowerback 35.855 -0.284788 2.52378
upperback 4.73136 -0.985882 1.18003
thorax -12.7072 -1.2632 0.514519
lowerneck -13.2638 -5.63017 -4.30549
upperneck -12.5241 -8.41689 11.839
head -1.05011 -4.9953 4.40451
rclavicle 3.67752e-015 9.54166e-015
rhumerus 70.5744 -2.46496 11.5473
rradius 42.7295
rwrist -71.7693
rhand -45.8544 -3.95741
rfingers 7.12502
rthumb -18.6057 -33.0876
lclavicle 3.67752e-015 9.54166e-015
lhumerus 61.1565 -4.30675 -31.3269
lradius 35.7523
lwrist 33.2652
lhand -48.4153 19.4734
lfingers 7.12502
lthumb -21.0674 48.3489
rfemur -66.0129 -29.9824 26.2055
rtibia 149.224
rfoot -53.7383 -11.3746
rtoes -9.42677
lfemur -59.7237 43.8464 -6.09382
ltibia 152.86
lfoot -54.8173 -24.6074
ltoes 0.91988
82
root 0.859476 7.69946 1.3006 168.129 -3.67659 -174.77
lowerback 35.8957 -0.301346 2.53742
upperback 4.71368 -0.99811 1.18373
thorax -12.7431 -1.26865 0.517692
lowerneck -13.4095 -5.59481 -4.24226
upperneck -12.434 -8.383 11.8218
head -1.00196 -4.9757 4.37935
rclavicle -1.18277e-014 6.75868e-015
rhumerus 70.3934 -2.25624 12.4772
rradius 42.9112
rwrist -72.4682
rhand -45.8393 -4.10148
rfingers 7.12502
rthumb -18.5911 -33.2331
lclavicle -1.18277e-014 6.75868e-015
lhumerus 61.2445 -4.83024 -31.998
lradius 35.6456
lwrist 32.9734
lhand -47.9282 19.6009
lfingers 7.12502
lthumb -20.5994 48.5279
rfemur -65.4892 -27.4062 26.3391
rtibia 147.763
rfoot -52.9412 -11.893
rtoes -10.2237
lfemur -59.9026 40.0149 -7.28607
ltibia 151.334
lfoot -54.1341 -24.2164
ltoes 0.245317
83
root 0.850351 7.89461 1.32391 168.264 -3.67395 -174.756
lowerback 35.9352 -0.317379 2.54592
upperback 4.66517 -1.00406 1.17155
thorax -12.8144 -1.2677 0.503843
lowerneck -13.5148 -5.58461 -4.22278
upperneck -12.2957 -8.36769 11.8487
head -0.938278 -4.95873 4.37674
rclavicle -8.44835e-015 -1.98785e-014
rhumerus 70.2554 -1.9923 13.2894
rradius 42.9475
rwrist -72.697
rhand -45.7584 -4.44203
rfingers 7.12502
rthumb -18.5133 -33.5811
lclavicle -8.44835e-015 -1.98785e-014
lhumerus 61.3716 -5.32912 -32.75
lradius 35.5837
lwrist 32.8676
lhand -47.5029 19.5657
lfingers 7.12502
lthumb -20.1907 48.5364
rfemur -64.8887 -25.0526 26.3725
rtibia 146.16
rfoot -52.0927 -12.3498
rtoes -11.1152
lfemur -59.9729 36.1533 -8.4269
ltibia 149.673
lfoot -53.247 -23.749
ltoes -0.248781
84
root 0.840195 8.09922 1.34758 168.459 -3.67847 -174.696
lowerback 35.8879 -0.353652 2.59163
upperback 4.61247 -1.01506 1.17799
thorax -12.8571 -1.26772 0.490183
lowerneck -13.6379 -5.56693 -4.20583
upperneck -12.1509 -8.34305 11.8359
head -0.872288 -4.93562 4.36026
rclavicle 6.65929e-015 -3.57812e-015
rhumerus 70.1383 -1.73996 14.0676
rradius 42.9328
rwrist -72.6533
rhand -45.7127 -4.8195
rfingers 7.12502
rthumb -18.4693 -33.9627
lclavicle 6.65929e-015 -3.57812e-015
lhumerus 61.4609 -5.79123 -33.7596
lradius 35.6292
lwrist 33.2742
lhand -47.1627 19.3516
lfingers 7.12502
lthumb -19.8637 48.3565
rfemur -64.354 -22.8145 26.4919
rtibia 144.454
rfoot -51.1387 -12.8528
rtoes -11.9012
lfemur -60.0096 32.5344 -9.41482
ltibia 147.94
lfoot -52.2783 -23.1913
ltoes -0.84172
85
root 0.830044 8.31363 1.37083 168.73 -3.68726 -174.662
lowerback 35.755 -0.390012 2.59576
upperback 4.54357 -1.03444 1.1814
thorax -12.8861 -1.2654 0.496362
lowerneck -13.7631 -5.55352 -4.20483
upperneck -11.9799 -8.32016 11.8439
head -0.795153 -4.91085 4.35331
rclavicle 1.6201e-014 -1.23246e-014
rhumerus 70.0907 -1.51056 14.7845
rradius 42.8287
rwrist -72.3685
rhand -45.6946 -5.16838
rfingers 7.12502
rthumb -18.4519 -34.3132
lclavicle 1.6201e-014 -1.23246e-014
lhumerus 61.6451 -6.2704 -34.2075
lradius 35.5073
lwrist 33.2786
lhand -46.9466 19.0439
lfingers 7.12502
lthumb -19.656 48.0702
rfemur -63.8223 -20.7439 26.5767
rtibia 142.646
rfoot -50.2041 -13.2771
rtoes -12.5928
lfemur -60.0176 29.1053 -10.3778
ltibia 146.126
lfoot -51.2186 -22.5022
ltoes -1.45197
86
root 0.820132 8.5347 1.39348 169.05 -3.7096 -174.607
lowerback 35.4779 -0.432742 2.62064
upperback 4.53898 -1.05213 1.18394
thorax -12.9029 -1.26005 0.476613
lowerneck -13.8373 -5.53415 -4.188
upperneck -11.8455 -8.29101 11.8615
head -0.739555 -4.88651 4.35061
rclavicle 1.65985e-014 0
rhumerus 70.0317 -1.27559 15.3659
rradius 42.6933
rwrist -71.9546
rhand -45.7068 -5.40684
rfingers 7.12502
rthumb -18.4637 -34.5506
lclavicle 1.65985e-014 0
lhumerus 61.9077 -6.68789 -34.2827
lradius 35.3008
lwrist 33.0834
lhand -46.8376 18.6844
lfingers 7.12502
lthumb -19.5512 47.7214
rfemur -63.3103 -18.9006 26.6884
rtibia 140.767
rfoot -49.2761 -13.6783
rtoes -13.0671
lfemur -59.9684 26.0339 -11.174
ltibia 144.257
lfoot -50.0981 -21.8374
ltoes -2.05504
87
root 0.810786 8.76212 1.41551 169.339 -3.72907 -174.55
lowerback 35.2974 -0.470192 2.61961
upperback 4.46176 -1.06883 1.21021
thorax -12.9224 -1.25435 0.507682
lowerneck -13.9547 -5.52332 -4.21073
upperneck -11.6494 -8.26484 11.8556
head -0.655259 -4.85598 4.34324
rclavicle -1.98785e-016 3.02153e-014
rhumerus 70.0118 -1.05943 16.0854
rradius 42.5879
rwrist -71.6212
rhand -45.8779 -5.50501
rfingers 7.12502
rthumb -18.6282 -34.6331
lclavicle -1.98785e-016 3.02153e-014
lhumerus 62.138 -7.04339 -34.1684
lradius 35.0817
lwrist 32.8787
lhand -46.793 18.3818
lfingers 7.12502
lthumb -19.5082 47.4231
rfemur -62.6838 -17.2422 26.7626
rtibia 138.811
rfoot -48.4129 -14.0248
rtoes -13.4487
lfemur -59.7276 23.3021 -11.781
ltibia 142.321
lfoot -48.9034 -21.3413
ltoes -2.13066
88
root 0.800555 8.99371 1.43593 169.592 -3.73986 -174.497
lowerback 35.1228 -0.51275 2.64031
upperback 4.40046 -1.09237 1.20793
thorax -12.9261 -1.25462 0.499194
lowerneck -14.1212 -5.50034 -4.16096
upperneck -11.4302 -8.23615 11.8238
head -0.559886 -4.82576 4.31083
rclavicle -2.78299e-015 -2.90226e-014
rhumerus 69.9192 -0.870728 17.0627
rradius 42.6104
rwrist -71.7099
rhand -46.259 -5.35203
rfingers 7.12502
rthumb -18.9947 -34.4445
lclavicle -2.78299e-015 -2.90226e-014
lhumerus 62.3796 -7.30254 -33.9917
lradius 34.8634
lwrist 32.6694
lhand -46.8442 18.1776
lfingers 7.12502
lthumb -19.5575 47.2139
rfemur -61.9337 -15.7781 26.794
rtibia 136.789
rfoot -47.6313 -14.3078
rtoes -13.6668
lfemur -59.334 20.9202 -12.2794
ltibia 140.346
lfoot -47.7481 -20.701
ltoes -2.5932
